<svg width="24" height="24" viewBox="0 0 24 24" fill="none" xmlns="http://www.w3.org/2000/svg">
<path d="M15.8589 21.574C10.2348 22.7667 2.21016 22.0552 2.21016 17.8697V8.8079C2.21016 8.27152 2.26878 7.7814 2.39736 7.36608M15.8589 21.574C17.2324 21.2827 18.0204 19.6977 17.9324 18.1226C17.909 17.7041 17.892 17.2673 17.8804 16.8182M15.8589 21.574C15.2446 21.8195 14.5292 22.0634 13.75 22.2781M2.39736 7.36608C2.66866 6.48979 3.25142 5.94648 4.25222 6.00419C5.16841 6.05702 6.28932 6.11043 7.5 6.15262M2.39736 7.36608C0.915238 8.45895 0.899543 14.8239 1.07696 17.8697C2.66307 23.7877 9.26347 23.5148 13.75 22.2781M2.39736 7.36608C1.95723 8.71375 1.21612 12.7012 1.77273 17.8697C2.32934 23.0382 9.9895 22.9622 13.75 22.2781M14.6731 1.65298C16.2206 1.73625 19.8961 1.71331 22.7216 1.00298C22.8385 0.97358 23.029 1.16845 22.9963 1.28319C22.4991 3.02794 22.3231 7.0361 22.6098 9.58973M22.5043 1.67032C19.9267 4.497 13.0002 11.5 10.0002 13" stroke="#17B890" stroke-linecap="round"/>
</svg>
